<svg version="1.1" xmlns="http://www.w3.org/2000/svg" viewBox="0 0 1707.046875 785.9765625" width="3414.09375" height="1571.953125" filter="invert(93%) hue-rotate(180deg)">
  <!-- svg-source:excalidraw -->
  
  <defs>
    <style class="style-fonts">
      @font-face {
        font-family: "Virgil";
        src: url("https://excalidraw.com/Virgil.woff2");
      }
      @font-face {
        font-family: "Cascadia";
        src: url("https://excalidraw.com/Cascadia.woff2");
      }
    </style>
    
  </defs>
  <rect x="0" y="0" width="1707.046875" height="785.9765625" fill="#ffffff"></rect><g stroke-linecap="round" transform="translate(289.0625 342.67578125) rotate(0 333.482421875 216.650390625)"><path d="M32 0 M32 0 C215.25 1.68, 398.31 1.6, 634.96 0 M32 0 C222.38 0.07, 413.17 0.02, 634.96 0 M634.96 0 C654.76 -0.15, 666.78 10.85, 666.96 32 M634.96 0 C655.04 -2.01, 665.86 12.46, 666.96 32 M666.96 32 C668.57 126.64, 668.44 220.83, 666.96 401.3 M666.96 32 C666.89 117.06, 666.94 202.73, 666.96 401.3 M666.96 401.3 C665.71 422.22, 655.71 434.82, 634.96 433.3 M666.96 401.3 C666.68 422.43, 656.72 434, 634.96 433.3 M634.96 433.3 C449.36 430.86, 264.81 431.18, 32 433.3 M634.96 433.3 C414.54 435.04, 193.13 435.51, 32 433.3 M32 433.3 C12.37 433.67, 1.39 422.9, 0 401.3 M32 433.3 C9.17 432.29, -1.07 421.6, 0 401.3 M0 401.3 C-0.2 310.01, -1.19 218.48, 0 32 M0 401.3 C1.27 308.64, 0.69 217.72, 0 32 M0 32 C0.6 11.6, 11.76 -0.28, 32 0 M0 32 C-1.9 12.76, 10.94 1.04, 32 0" stroke="#1e1e1e" stroke-width="1" fill="none"></path></g><g stroke-linecap="round" transform="translate(324.49609375 380.75390625) rotate(0 103.955078125 23.400390625)"><path d="M11.7 0 M11.7 0 C50.95 1.46, 95.52 0.94, 196.21 0 M11.7 0 C71.57 1.48, 133.62 0.58, 196.21 0 M196.21 0 C204.89 0.29, 209.68 3.83, 207.91 11.7 M196.21 0 C203.22 -0.19, 207.36 5.75, 207.91 11.7 M207.91 11.7 C209.7 19.66, 209.88 28.2, 207.91 35.1 M207.91 11.7 C207.41 20.3, 207.95 29.95, 207.91 35.1 M207.91 35.1 C208.95 41.6, 203.84 48.35, 196.21 46.8 M207.91 35.1 C209.81 45.05, 203.09 44.67, 196.21 46.8 M196.21 46.8 C143.69 44.74, 89.92 46.05, 11.7 46.8 M196.21 46.8 C141.05 48.39, 88.19 47.23, 11.7 46.8 M11.7 46.8 C1.91 46.92, 1.73 44.03, 0 35.1 M11.7 46.8 C5.63 47.59, 0.17 44.94, 0 35.1 M0 35.1 C1.76 29.36, -1.61 23.45, 0 11.7 M0 35.1 C1.03 25.48, 0.83 16.42, 0 11.7 M0 11.7 C1.65 2.59, 5.36 1.53, 11.7 0 M0 11.7 C0.93 5.14, 1.66 -1.9, 11.7 0" stroke="#1e1e1e" stroke-width="1" fill="none"></path></g><g stroke-linecap="round" transform="translate(333.421875 483.99609375) rotate(0 33.990234375 17.376953125)"><path d="M8.69 0 M8.69 0 C20.69 0.69, 33.2 0.83, 59.29 0 M8.69 0 C25.07 0.11, 39.43 -0.97, 59.29 0 M59.29 0 C66.59 1.92, 69.74 3.71, 67.98 8.69 M59.29 0 C65.64 -0.29, 67.38 2.75, 67.98 8.69 M67.98 8.69 C69.4 11.95, 67.41 18.6, 67.98 26.07 M67.98 8.69 C67.83 14.21, 68.43 20.64, 67.98 26.07 M67.98 26.07 C67.52 31.97, 63.1 34.97, 59.29 34.75 M67.98 26.07 C67.62 30.69, 67.35 35.39, 59.29 34.75 M59.29 34.75 C39.32 35.62, 18.59 34.7, 8.69 34.75 M59.29 34.75 C42.21 34.53, 26.8 34.43, 8.69 34.75 M8.69 34.75 C4.51 33.3, 0.71 29.9, 0 26.07 M8.69 34.75 C1.38 34.07, -2.3 31.06, 0 26.07 M0 26.07 C-0.07 20.22, 0.31 17.59, 0 8.69 M0 26.07 C-0.19 20.29, 0 12.97, 0 8.69 M0 8.69 C1.81 1.61, 4.38 -1.94, 8.69 0 M0 8.69 C0.56 0.87, 4.94 0.04, 8.69 0" stroke="#1e1e1e" stroke-width="1" fill="none"></path></g><g stroke-linecap="round" transform="translate(429.8984375 482.25390625) rotate(0 33.990234375 17.376953125)"><path d="M8.69 0 M8.69 0 C18.43 -1.92, 29.19 0.29, 59.29 0 M8.69 0 C27.5 -0.05, 46.79 -1.07, 59.29 0 M59.29 0 C64.49 -2, 67.29 1.75, 67.98 8.69 M59.29 0 C63.34 0.09, 67.71 0.73, 67.98 8.69 M67.98 8.69 C66.25 14.04, 67.25 20.2, 67.98 26.07 M67.98 8.69 C67.26 14.2, 66.97 18.64, 67.98 26.07 M67.98 26.07 C66.22 33.63, 65.11 33.09, 59.29 34.75 M67.98 26.07 C69.08 32.01, 64.32 33.64, 59.29 34.75 M59.29 34.75 C43.95 34.77, 28.39 36.66, 8.69 34.75 M59.29 34.75 C48.67 35.47, 37.31 35.51, 8.69 34.75 M8.69 34.75 C2.08 33.02, -1.88 29.92, 0 26.07 M8.69 34.75 C0.75 33.42, -1.63 31.1, 0 26.07 M0 26.07 C-0.69 18.79, -0.41 15.01, 0 8.69 M0 26.07 C0.02 20.3, 0.37 13.2, 0 8.69 M0 8.69 C-1.9 3.39, 3.12 1.93, 8.69 0 M0 8.69 C-1.59 1.53, 4.34 -2.11, 8.69 0" stroke="#1e1e1e" stroke-width="1" fill="none"></path></g><g stroke-linecap="round" transform="translate(520.66015625 483.1953125) rotate(0 33.990234375 17.376953125)"><path d="M8.69 0 M8.69 0 C27.07 1.59, 48.57 -1.78, 59.29 0 M8.69 0 C26.77 1.23, 43.34 1.03, 59.29 0 M59.29 0 C65.11 1.65, 66.67 4.36, 67.98 8.69 M59.29 0 C66.85 0.93, 69.22 0.66, 67.98 8.69 M67.98 8.69 C66.91 11.65, 66.88 17.64, 67.98 26.07 M67.98 8.69 C68.39 15.75, 67.07 21.05, 67.98 26.07 M67.98 26.07 C67.31 30.82, 64.84 32.85, 59.29 34.75 M67.98 26.07 C67.82 32.45, 64.05 34.25, 59.29 34.75 M59.29 34.75 C43.42 34.6, 29.05 35.42, 8.69 34.75 M59.29 34.75 C47.41 35.48, 36.89 35.53, 8.69 34.75 M8.69 34.75 C1.79 34.13, -0.53 30.92, 0 26.07 M8.69 34.75 C4.19 36.9, 2.05 33.64, 0 26.07 M0 26.07 C-0.98 22.78, 0.88 16.73, 0 8.69 M0 26.07 C0.12 20.18, 0.42 14.48, 0 8.69 M0 8.69 C0.7 0.98, 1.43 1.5, 8.69 0 M0 8.69 C2.21 4.92, 3.84 0.56, 8.69 0" stroke="#1e1e1e" stroke-width="1" fill="none"></path></g><g stroke-linecap="round"><g transform="translate(665.390625 374.8984375) rotate(0 -0.7893080164159869 181.69112759451383)"><path d="M-1.16 0.18 C-1.32 61.03, -2.08 303.37, -2.14 364.15 M0.43 -0.76 C0.72 59.79, 0.49 301.56, -0.01 362.19" stroke="#1e1e1e" stroke-width="1" fill="none"></path></g></g><mask></mask><g stroke-linecap="round" transform="translate(337.37109375 575.51171875) rotate(0 39.908203125 47.109375)"><path d="M19.95 0 M19.95 0 C32.91 -0.34, 50.28 2.07, 59.86 0 M19.95 0 C29.55 -0.42, 37.75 -0.04, 59.86 0 M59.86 0 C72.62 0.86, 81.7 5.8, 79.82 19.95 M59.86 0 C71.83 1.56, 79.24 7.77, 79.82 19.95 M79.82 19.95 C78.73 35.19, 82.08 54.42, 79.82 74.26 M79.82 19.95 C79.5 35.2, 80.9 50.03, 79.82 74.26 M79.82 74.26 C81.78 87.93, 72.29 94.5, 59.86 94.22 M79.82 74.26 C77.62 87.7, 71.25 94.96, 59.86 94.22 M59.86 94.22 C44.87 93.5, 34.07 93.05, 19.95 94.22 M59.86 94.22 C44.93 94.59, 29.8 93.25, 19.95 94.22 M19.95 94.22 C8.06 93.62, 1.47 88.9, 0 74.26 M19.95 94.22 C7.94 95.59, 1.8 85.97, 0 74.26 M0 74.26 C2.21 51.27, 2.42 33.57, 0 19.95 M0 74.26 C0.03 61.64, 0 47.36, 0 19.95 M0 19.95 C1.2 7.44, 5.73 1.21, 19.95 0 M0 19.95 C0.75 7.53, 4.73 -0.56, 19.95 0" stroke="#1e1e1e" stroke-width="1" fill="none"></path></g><g stroke-linecap="round" transform="translate(450.609375 575.6171875) rotate(0 39.908203125 47.109375)"><path d="M19.95 0 M19.95 0 C29.26 1.5, 41.93 0.15, 59.86 0 M19.95 0 C27.83 -1, 37.43 -0.35, 59.86 0 M59.86 0 C71.32 1.31, 79.24 8.19, 79.82 19.95 M59.86 0 C72.54 0.16, 78.28 6.53, 79.82 19.95 M79.82 19.95 C77.98 41.55, 81.24 62.48, 79.82 74.26 M79.82 19.95 C80.26 33.28, 78.84 48.68, 79.82 74.26 M79.82 74.26 C79.26 88.45, 75 93.47, 59.86 94.22 M79.82 74.26 C79.49 85.99, 75.12 94.75, 59.86 94.22 M59.86 94.22 C43.93 95.75, 31.31 91.91, 19.95 94.22 M59.86 94.22 C45.08 94.34, 29.26 94.05, 19.95 94.22 M19.95 94.22 C7.71 95.9, -1.55 87.54, 0 74.26 M19.95 94.22 C4.78 94.84, -0.87 86.37, 0 74.26 M0 74.26 C0.55 59.19, -0.42 44.86, 0 19.95 M0 74.26 C-0.21 58.96, -0.56 44.42, 0 19.95 M0 19.95 C1.39 6.47, 7.85 -0.06, 19.95 0 M0 19.95 C0.09 4.44, 8.74 1.54, 19.95 0" stroke="#1e1e1e" stroke-width="1" fill="none"></path></g><g stroke-linecap="round" transform="translate(706.94921875 444.76953125) rotate(0 39.908203125 47.109375)"><path d="M19.95 0 M19.95 0 C35.93 0.88, 49.8 0.31, 59.86 0 M19.95 0 C34.01 -0.5, 48.38 -0.07, 59.86 0 M59.86 0 C72.13 -0.71, 81.49 5.27, 79.82 19.95 M59.86 0 C74.32 -0.83, 79.86 5.86, 79.82 19.95 M79.82 19.95 C80.05 34.77, 79.36 51.12, 79.82 74.26 M79.82 19.95 C79.73 40.07, 78.8 61.01, 79.82 74.26 M79.82 74.26 C81.15 86.25, 71.21 93.73, 59.86 94.22 M79.82 74.26 C78.31 87.29, 71.84 96.04, 59.86 94.22 M59.86 94.22 C45.93 92.8, 34.87 95.55, 19.95 94.22 M59.86 94.22 C46.25 94.28, 31.38 94.06, 19.95 94.22 M19.95 94.22 C7.13 95.92, -1.73 85.76, 0 74.26 M19.95 94.22 C6.54 95.55, -1.28 85.74, 0 74.26 M0 74.26 C-2.1 54.88, -0.48 36.12, 0 19.95 M0 74.26 C-0.24 58.04, 0.67 42.03, 0 19.95 M0 19.95 C-0.49 4.99, 7.59 -0.93, 19.95 0 M0 19.95 C0.56 8.32, 7.87 -1.68, 19.95 0" stroke="#1e1e1e" stroke-width="1" fill="none"></path></g><g stroke-linecap="round" transform="translate(815.796875 444.5390625) rotate(0 39.908203125 47.109375)"><path d="M19.95 0 M19.95 0 C33.44 2.02, 50.73 -0.31, 59.86 0 M19.95 0 C31.36 -1.09, 42.52 0.57, 59.86 0 M59.86 0 C72.93 0.92, 80.7 8.29, 79.82 19.95 M59.86 0 C73.77 -0.74, 77.59 8.86, 79.82 19.95 M79.82 19.95 C78.4 33.23, 81.38 44.67, 79.82 74.26 M79.82 19.95 C80.38 31.66, 80.06 44.58, 79.82 74.26 M79.82 74.26 C81.16 88.38, 73.98 96.21, 59.86 94.22 M79.82 74.26 C80.2 88.34, 74.49 93.93, 59.86 94.22 M59.86 94.22 C49.13 94.55, 41.75 93.74, 19.95 94.22 M59.86 94.22 C44.86 94.12, 29.02 95.01, 19.95 94.22 M19.95 94.22 C4.75 94.07, 0.22 87.97, 0 74.26 M19.95 94.22 C6.82 96.19, -1.7 88.91, 0 74.26 M0 74.26 C-0.86 55.6, -1.59 36.76, 0 19.95 M0 74.26 C-1.01 54.47, 0.53 36.23, 0 19.95 M0 19.95 C-1.62 8.01, 8.29 1.69, 19.95 0 M0 19.95 C-0.21 7.36, 7.3 -0.62, 19.95 0" stroke="#1e1e1e" stroke-width="1" fill="none"></path></g><g stroke-linecap="round" transform="translate(48.20703125 141.05078125) rotate(0 89.4609375 99.884765625)"><path d="M32 0 M32 0 C58.19 0.99, 80.53 -0.04, 146.92 0 M32 0 C64.59 -1.07, 97.49 -1.32, 146.92 0 M146.92 0 C167.02 -1.04, 180.26 10.41, 178.92 32 M146.92 0 C169.91 -0.57, 178.16 12.35, 178.92 32 M178.92 32 C179.36 74.38, 178.93 114.67, 178.92 167.77 M178.92 32 C180.48 86.67, 179.43 139.32, 178.92 167.77 M178.92 167.77 C178.42 189.29, 168.2 198.35, 146.92 199.77 M178.92 167.77 C180.93 190.14, 170.01 198.52, 146.92 199.77 M146.92 199.77 C103.43 200.24, 61.38 201.06, 32 199.77 M146.92 199.77 C109.64 200.44, 70.09 199.39, 32 199.77 M32 199.77 C11.64 201.32, -1.64 189.04, 0 167.77 M32 199.77 C11.42 198.01, -1.86 190.14, 0 167.77 M0 167.77 C-1.59 137.53, 1.08 108.08, 0 32 M0 167.77 C-0.78 134, -0.63 98.66, 0 32 M0 32 C-1.52 10.87, 11.22 -0.03, 32 0 M0 32 C2.24 9.73, 9.16 -1.13, 32 0" stroke="#1e1e1e" stroke-width="1" fill="none"></path></g><g transform="translate(78.21484375 221.72265625) rotate(0 51.68994140625 12.5)"><text x="0" y="0" font-family="Virgil, Segoe UI Emoji" font-size="20px" fill="#1e1e1e" text-anchor="start" style="white-space: pre;" direction="ltr" dominant-baseline="text-before-edge">title filter</text></g><g transform="translate(75.921875 265.33203125) rotate(0 60.709938049316406 12.5)"><text x="0" y="0" font-family="Virgil, Segoe UI Emoji" font-size="20px" fill="#1e1e1e" text-anchor="start" style="white-space: pre;" direction="ltr" dominant-baseline="text-before-edge">gender filter</text></g><g transform="translate(77.46875 173.140625) rotate(0 52.17994689941406 12.5)"><text x="0" y="0" font-family="Virgil, Segoe UI Emoji" font-size="20px" fill="#1e1e1e" text-anchor="start" style="white-space: pre;" direction="ltr" dominant-baseline="text-before-edge">page filter</text></g><g transform="translate(69.25 99.42578125) rotate(0 30.52996063232422 12.5)"><text x="0" y="0" font-family="Virgil, Segoe UI Emoji" font-size="20px" fill="#1e1e1e" text-anchor="start" style="white-space: pre;" direction="ltr" dominant-baseline="text-before-edge">filters</text></g><g stroke-linecap="round"><g transform="translate(327.1171875 510.13671875) rotate(0 -48.721000885665404 -87.28161789886656)"><path d="M-1.13 0.56 C-17.27 -28.52, -81.29 -145.94, -97.54 -175.13 M0.48 -0.19 C-15.66 -29.01, -81.27 -144.19, -97.92 -173.6" stroke="#1e1e1e" stroke-width="1" fill="none"></path></g><g transform="translate(327.1171875 510.13671875) rotate(0 -48.721000885665404 -87.28161789886656)"><path d="M-74.14 -152.33 C-80.51 -159.07, -85.1 -162.39, -99.25 -173.36 M-75.39 -155.11 C-80.98 -158.45, -84.7 -162.11, -97.87 -172.96" stroke="#1e1e1e" stroke-width="1" fill="none"></path></g><g transform="translate(327.1171875 510.13671875) rotate(0 -48.721000885665404 -87.28161789886656)"><path d="M-91.98 -142.2 C-94 -151.21, -94.28 -156.98, -99.25 -173.36 M-93.23 -144.97 C-94.91 -150.74, -94.64 -156.66, -97.87 -172.96" stroke="#1e1e1e" stroke-width="1" fill="none"></path></g></g><mask></mask><g stroke-linecap="round"><g transform="translate(389.58203125 375.29296875) rotate(0 -75.07451759244316 -33.27563433535397)"><path d="M1.15 -0.37 C-23.82 -11.57, -125.28 -55.4, -150.97 -66.18 M0.29 -1.61 C-24.62 -12.18, -126.15 -54.85, -151.3 -65.2" stroke="#1e1e1e" stroke-width="1" fill="none"></path></g><g transform="translate(389.58203125 375.29296875) rotate(0 -75.07451759244316 -33.27563433535397)"><path d="M-121.94 -61.84 C-129.13 -65.23, -133.27 -65.19, -151.5 -64.12 M-121.03 -64.43 C-132.14 -64.33, -143.74 -64.69, -151.31 -64.54" stroke="#1e1e1e" stroke-width="1" fill="none"></path></g><g transform="translate(389.58203125 375.29296875) rotate(0 -75.07451759244316 -33.27563433535397)"><path d="M-129.84 -42.9 C-135.59 -50.18, -138.14 -53.95, -151.5 -64.12 M-128.92 -45.49 C-137.02 -52.65, -145.58 -60.29, -151.31 -64.54" stroke="#1e1e1e" stroke-width="1" fill="none"></path></g></g><mask></mask><g stroke-linecap="round"><g transform="translate(628.87109375 476.7265625) rotate(0 -196.67326883877627 -74.16798576940784)"><path d="M0.57 -0.95 C-64.89 -25.76, -327.69 -124.82, -393.31 -149.51 M-0.58 1.17 C-66.1 -23.4, -328.44 -123.3, -393.92 -148.1" stroke="#1e1e1e" stroke-width="1" fill="none"></path></g><g transform="translate(628.87109375 476.7265625) rotate(0 -196.67326883877627 -74.16798576940784)"><path d="M-365.5 -146.6 C-372 -146.28, -378.89 -146.46, -393.13 -150.07 M-363.19 -146.86 C-373.11 -147, -382.22 -147.91, -393.41 -148.46" stroke="#1e1e1e" stroke-width="1" fill="none"></path></g><g transform="translate(628.87109375 476.7265625) rotate(0 -196.67326883877627 -74.16798576940784)"><path d="M-372.79 -127.41 C-377.32 -132.03, -382.34 -137.11, -393.13 -150.07 M-370.47 -127.67 C-378.28 -133.5, -385.21 -140.12, -393.41 -148.46" stroke="#1e1e1e" stroke-width="1" fill="none"></path></g></g><mask></mask><g stroke-linecap="round"><g transform="translate(927.51171875 429.93359375) rotate(0 66.45233062561601 -0.11623143076894848)"><path d="M-0.13 -0.73 C22.11 -0.53, 111.87 0.21, 134.56 0.06 M-1.65 1.5 C20.28 1.45, 110.47 -1.34, 133.36 -1.74" stroke="#1e1e1e" stroke-width="1" fill="none"></path></g><g transform="translate(927.51171875 429.93359375) rotate(0 66.45233062561601 -0.11623143076894848)"><path d="M104.21 8.41 C117.63 6.44, 125.9 1.23, 134.41 -1.89 M104.43 8.88 C112.84 6.25, 121.13 4, 132.91 -1.67" stroke="#1e1e1e" stroke-width="1" fill="none"></path></g><g transform="translate(927.51171875 429.93359375) rotate(0 66.45233062561601 -0.11623143076894848)"><path d="M103.71 -12.1 C117.13 -5.93, 125.61 -3.01, 134.41 -1.89 M103.93 -11.64 C112.34 -8.51, 120.77 -5, 132.91 -1.67" stroke="#1e1e1e" stroke-width="1" fill="none"></path></g></g><mask></mask><g transform="translate(1090.75390625 415.66796875) rotate(0 54.89994812011719 12.5)"><text x="0" y="0" font-family="Virgil, Segoe UI Emoji" font-size="20px" fill="#1e1e1e" text-anchor="start" style="white-space: pre;" direction="ltr" dominant-baseline="text-before-edge">reading list</text></g><g stroke-linecap="round"><g transform="translate(322.74609375 624.51171875) rotate(0 -55.764792950078856 -0.7182120972348116)"><path d="M0.38 -0.19 C-18.14 -0.29, -93.44 0.4, -111.91 0.36 M-0.88 -1.34 C-18.95 -1.89, -91.3 -1.91, -109.63 -1.58" stroke="#1e1e1e" stroke-width="1" fill="none"></path></g><g transform="translate(322.74609375 624.51171875) rotate(0 -55.764792950078856 -0.7182120972348116)"><path d="M-81.83 -13.4 C-87.48 -8.39, -95.46 -8.5, -108.51 0.12 M-81.46 -12.83 C-91.11 -8.54, -101.54 -3.66, -110.28 -0.72" stroke="#1e1e1e" stroke-width="1" fill="none"></path></g><g transform="translate(322.74609375 624.51171875) rotate(0 -55.764792950078856 -0.7182120972348116)"><path d="M-81.69 7.12 C-87.53 7.28, -95.55 2.33, -108.51 0.12 M-81.32 7.69 C-91.19 4.65, -101.67 2.22, -110.28 -0.72" stroke="#1e1e1e" stroke-width="1" fill="none"></path></g></g><mask></mask><g transform="translate(10 616.33203125) rotate(0 74.69993591308594 12.5)"><text x="0" y="0" font-family="Virgil, Segoe UI Emoji" font-size="20px" fill="#1e1e1e" text-anchor="start" style="white-space: pre;" direction="ltr" dominant-baseline="text-before-edge">available books</text></g><g stroke-linecap="round" transform="translate(293.41015625 134.9453125) rotate(0 214.75 52.314453125)"><path d="M26.16 0 M26.16 0 C144.29 1.27, 261.89 1.58, 403.34 0 M26.16 0 C158.86 0.49, 290.29 0.9, 403.34 0 M403.34 0 C419.21 -0.59, 428 6.87, 429.5 26.16 M403.34 0 C420.49 1.64, 431.73 8.59, 429.5 26.16 M429.5 26.16 C428.36 41.74, 429.67 59.82, 429.5 78.47 M429.5 26.16 C430.42 42.79, 430.47 60.67, 429.5 78.47 M429.5 78.47 C429.17 97.13, 422.29 105.28, 403.34 104.63 M429.5 78.47 C429.48 97.82, 419.27 105.42, 403.34 104.63 M403.34 104.63 C305.63 107.48, 209.39 105.61, 26.16 104.63 M403.34 104.63 C289.9 103.66, 176.93 103.93, 26.16 104.63 M26.16 104.63 C10.51 102.95, -1.71 95.75, 0 78.47 M26.16 104.63 C10.92 106.36, -0.59 97.15, 0 78.47 M0 78.47 C-0.58 60.49, -1.29 47.82, 0 26.16 M0 78.47 C0.99 66.28, -0.91 53.85, 0 26.16 M0 26.16 C-0.21 9.91, 8.81 0.79, 26.16 0 M0 26.16 C0.97 10.78, 10.49 1.02, 26.16 0" stroke="#1e1e1e" stroke-width="1" fill="none"></path></g><g transform="translate(325.47265625 167.5390625) rotate(0 181.86984252929688 25)"><text x="0" y="0" font-family="Virgil, Segoe UI Emoji" font-size="20px" fill="#1e1e1e" text-anchor="start" style="white-space: pre;" direction="ltr" dominant-baseline="text-before-edge">Only has a single array with book's</text><text x="0" y="25" font-family="Virgil, Segoe UI Emoji" font-size="20px" fill="#1e1e1e" text-anchor="start" style="white-space: pre;" direction="ltr" dominant-baseline="text-before-edge">and filter by isInReadingListProperty</text></g><g transform="translate(308.15234375 94.03515625) rotate(0 45.039955139160156 12.5)"><text x="0" y="0" font-family="Virgil, Segoe UI Emoji" font-size="20px" fill="#1e1e1e" text-anchor="start" style="white-space: pre;" direction="ltr" dominant-baseline="text-before-edge">solution 1</text></g><g stroke-linecap="round" transform="translate(1398.35546875 51.484375) rotate(0 147.693359375 154.236328125)"><path d="M32 0 M32 0 C94.63 2.72, 158.37 1.49, 263.39 0 M32 0 C105.31 -0.14, 178.59 0.31, 263.39 0 M263.39 0 C285.06 0.21, 294.12 9.01, 295.39 32 M263.39 0 C286.84 0.81, 294.42 11.64, 295.39 32 M295.39 32 C294.22 84.96, 294.28 140.91, 295.39 276.47 M295.39 32 C294.01 117.87, 295.1 204.1, 295.39 276.47 M295.39 276.47 C295.67 298.37, 283.93 308.29, 263.39 308.47 M295.39 276.47 C296.56 299.86, 286.27 308.17, 263.39 308.47 M263.39 308.47 C183.82 305.87, 105.56 306.25, 32 308.47 M263.39 308.47 C182.83 308.37, 100.81 307.31, 32 308.47 M32 308.47 C11.61 310.05, -1.32 296.25, 0 276.47 M32 308.47 C9.63 309.41, -0.51 296.84, 0 276.47 M0 276.47 C2.81 216.12, 3.31 154.21, 0 32 M0 276.47 C0.62 199.44, 0.31 122.78, 0 32 M0 32 C1.27 10.54, 10.72 -0.49, 32 0 M0 32 C0.16 12.52, 8.56 1.42, 32 0" stroke="#1e1e1e" stroke-width="1" fill="none"></path></g><g transform="translate(1419.58203125 10) rotate(0 64.5299301147461 12.5)"><text x="0" y="0" font-family="Virgil, Segoe UI Emoji" font-size="20px" fill="#1e1e1e" text-anchor="start" style="white-space: pre;" direction="ltr" dominant-baseline="text-before-edge">store | books</text></g><g transform="translate(1424.64453125 78.2578125) rotate(0 120.9999008178711 25)"><text x="0" y="0" font-family="Virgil, Segoe UI Emoji" font-size="20px" fill="#1e1e1e" text-anchor="start" style="white-space: pre;" direction="ltr" dominant-baseline="text-before-edge">* availableBooks: number</text><text x="0" y="25" font-family="Virgil, Segoe UI Emoji" font-size="20px" fill="#1e1e1e" text-anchor="start" style="white-space: pre;" direction="ltr" dominant-baseline="text-before-edge">* books</text></g><g transform="translate(1418.59765625 156.4921875) rotate(0 118.28988647460938 25)"><text x="0" y="0" font-family="Virgil, Segoe UI Emoji" font-size="20px" fill="#1e1e1e" text-anchor="start" style="white-space: pre;" direction="ltr" dominant-baseline="text-before-edge">+ addBook(): change</text><text x="0" y="25" font-family="Virgil, Segoe UI Emoji" font-size="20px" fill="#1e1e1e" text-anchor="start" style="white-space: pre;" direction="ltr" dominant-baseline="text-before-edge">property isInReadingList</text></g><g transform="translate(1421.23828125 225.96484375) rotate(0 114.04989624023438 37.5)"><text x="0" y="0" font-family="Virgil, Segoe UI Emoji" font-size="20px" fill="#1e1e1e" text-anchor="start" style="white-space: pre;" direction="ltr" dominant-baseline="text-before-edge">+ removeBoiok(): filter </text><text x="0" y="25" font-family="Virgil, Segoe UI Emoji" font-size="20px" fill="#1e1e1e" text-anchor="start" style="white-space: pre;" direction="ltr" dominant-baseline="text-before-edge">book's to remove from</text><text x="0" y="50" font-family="Virgil, Segoe UI Emoji" font-size="20px" fill="#1e1e1e" text-anchor="start" style="white-space: pre;" direction="ltr" dominant-baseline="text-before-edge">reading books</text></g><g stroke-linecap="round" transform="translate(1414.51171875 461.42578125) rotate(0 141.267578125 93.068359375)"><path d="M32 0 M32 0 C79.23 0.26, 128.61 1.34, 250.54 0 M32 0 C77.9 2.43, 123.94 1.31, 250.54 0 M250.54 0 C271.3 0.18, 280.6 11.32, 282.54 32 M250.54 0 C271.81 -0.34, 284.2 8.93, 282.54 32 M282.54 32 C281.41 71.29, 281.51 111.9, 282.54 154.14 M282.54 32 C282.92 71.53, 284.17 110.46, 282.54 154.14 M282.54 154.14 C283.02 174.23, 273.56 188.13, 250.54 186.14 M282.54 154.14 C281.59 175.73, 271.06 185.65, 250.54 186.14 M250.54 186.14 C200 187.54, 147.51 186.21, 32 186.14 M250.54 186.14 C197.49 187.51, 143.59 188.01, 32 186.14 M32 186.14 C10.77 185.97, 1.53 174.68, 0 154.14 M32 186.14 C12.8 187.76, -1.2 176.53, 0 154.14 M0 154.14 C-0.19 118.88, -0.69 82.77, 0 32 M0 154.14 C0.58 122.44, 0.74 93.01, 0 32 M0 32 C0.96 11.06, 12.19 1.67, 32 0 M0 32 C0.42 11.6, 8.91 -2.19, 32 0" stroke="#1e1e1e" stroke-width="1" fill="none"></path></g><g transform="translate(1441.62890625 506.08984375) rotate(0 114.889892578125 50)"><text x="0" y="0" font-family="Virgil, Segoe UI Emoji" font-size="20px" fill="#1e1e1e" text-anchor="start" style="white-space: pre;" direction="ltr" dominant-baseline="text-before-edge">* state with filters</text><text x="0" y="25" font-family="Virgil, Segoe UI Emoji" font-size="20px" fill="#1e1e1e" text-anchor="start" style="white-space: pre;" direction="ltr" dominant-baseline="text-before-edge"></text><text x="0" y="50" font-family="Virgil, Segoe UI Emoji" font-size="20px" fill="#1e1e1e" text-anchor="start" style="white-space: pre;" direction="ltr" dominant-baseline="text-before-edge">+ filter() receibe type</text><text x="0" y="75" font-family="Virgil, Segoe UI Emoji" font-size="20px" fill="#1e1e1e" text-anchor="start" style="white-space: pre;" direction="ltr" dominant-baseline="text-before-edge">of filter and list books</text></g><g transform="translate(1431.18359375 418.4296875) rotate(0 63.16992950439453 12.5)"><text x="0" y="0" font-family="Virgil, Segoe UI Emoji" font-size="20px" fill="#1e1e1e" text-anchor="start" style="white-space: pre;" direction="ltr" dominant-baseline="text-before-edge">store | filter</text></g><g stroke-linecap="round" transform="translate(927.78125 75.90625) rotate(0 113.26171875 108.478515625)"><path d="M32 0 M32 0 C66.33 0.02, 104.85 -1.52, 194.52 0 M32 0 C91.93 1.47, 149.44 1.25, 194.52 0 M194.52 0 C217.32 1, 226.03 9.38, 226.52 32 M194.52 0 C217.81 1.68, 227.5 8.57, 226.52 32 M226.52 32 C226.96 61.76, 228.02 92.59, 226.52 184.96 M226.52 32 C225.39 73.87, 226.23 117.29, 226.52 184.96 M226.52 184.96 C228.07 206.22, 216.2 216.54, 194.52 216.96 M226.52 184.96 C228.04 206.05, 215.98 216.43, 194.52 216.96 M194.52 216.96 C133.14 216.94, 75.81 216.24, 32 216.96 M194.52 216.96 C138.69 217.1, 83.3 216.68, 32 216.96 M32 216.96 C8.89 216.82, -1.74 204.99, 0 184.96 M32 216.96 C12.6 218.55, 0.63 206.74, 0 184.96 M0 184.96 C0.5 149.85, -1.56 116.6, 0 32 M0 184.96 C-0.78 129.38, -1.85 73.26, 0 32 M0 32 C-1.41 11.59, 10.16 0.69, 32 0 M0 32 C-0.71 9.72, 8.69 -0.24, 32 0" stroke="#1e1e1e" stroke-width="1" fill="none"></path></g><g transform="translate(948.5625 119.09375) rotate(0 65.36994171142578 62.5)"><text x="0" y="0" font-family="Virgil, Segoe UI Emoji" font-size="20px" fill="#1e1e1e" text-anchor="start" style="white-space: pre;" direction="ltr" dominant-baseline="text-before-edge">* button</text><text x="0" y="25" font-family="Virgil, Segoe UI Emoji" font-size="20px" fill="#1e1e1e" text-anchor="start" style="white-space: pre;" direction="ltr" dominant-baseline="text-before-edge">* bookCard</text><text x="0" y="50" font-family="Virgil, Segoe UI Emoji" font-size="20px" fill="#1e1e1e" text-anchor="start" style="white-space: pre;" direction="ltr" dominant-baseline="text-before-edge">* bookList</text><text x="0" y="75" font-family="Virgil, Segoe UI Emoji" font-size="20px" fill="#1e1e1e" text-anchor="start" style="white-space: pre;" direction="ltr" dominant-baseline="text-before-edge">* Input</text><text x="0" y="100" font-family="Virgil, Segoe UI Emoji" font-size="20px" fill="#1e1e1e" text-anchor="start" style="white-space: pre;" direction="ltr" dominant-baseline="text-before-edge">* filterBadge</text></g><g transform="translate(941.5703125 36.4296875) rotate(0 53.24994659423828 12.5)"><text x="0" y="0" font-family="Virgil, Segoe UI Emoji" font-size="20px" fill="#1e1e1e" text-anchor="start" style="white-space: pre;" direction="ltr" dominant-baseline="text-before-edge">components</text></g></svg>